<svg width="16" height="16" viewBox="0 0 16 16" fill="none" xmlns="http://www.w3.org/2000/svg">
<path d="M14.0533 5.72002V10.28C14.0533 11.0267 13.6533 11.72 13.0067 12.1L9.04667 14.3867C8.4 14.76 7.6 14.76 6.94667 14.3867L2.98667 12.1C2.34 11.7267 1.94 11.0333 1.94 10.28V5.72002C1.94 4.97335 2.34 4.27999 2.98667 3.89999L6.94667 1.61333C7.59334 1.23999 8.39334 1.23999 9.04667 1.61333L13.0067 3.89999C13.6533 4.27999 14.0533 4.96668 14.0533 5.72002Z" stroke="#848484" stroke-width="1.5" stroke-linecap="round" stroke-linejoin="round"/>
<path d="M7.99999 7.33333C8.85787 7.33333 9.55332 6.63787 9.55332 5.77999C9.55332 4.92211 8.85787 4.22668 7.99999 4.22668C7.14211 4.22668 6.44666 4.92211 6.44666 5.77999C6.44666 6.63787 7.14211 7.33333 7.99999 7.33333Z" stroke="#848484" stroke-width="1.5" stroke-linecap="round" stroke-linejoin="round"/>
<path d="M10.6667 11.1066C10.6667 9.90665 9.47333 8.93335 7.99999 8.93335C6.52666 8.93335 5.33333 9.90665 5.33333 11.1066" stroke="#848484" stroke-width="1.5" stroke-linecap="round" stroke-linejoin="round"/>
</svg>
